<svg version="1.2" xmlns="http://www.w3.org/2000/svg" viewBox="0 0 228 188" width="228" height="188">
	<title>Новый проект</title>
	<defs>
		<filter x="-50%" y="-50%" width="200%" height="200%" id="f1" ><feDropShadow dx="2.427050983124842" dy="1.7633557568774196" stdDeviation="3.75" flood-color="#3c5963" flood-opacity=".8"/></filter>
	</defs>
	<style>
		.s0 { filter: url(#f1);fill: #328daa } 
	</style>
	<path id="форма 1" class="s0" d="m107.6 16.4c-3.3 0.9-9.6 3.4-14 5.6-4.4 2.1-11.1 6.2-14.8 9.1-3.7 2.8-10.1 8.5-14 12.6-4 4.1-9.1 10-11.4 13.1-2.3 3.1-5.8 8.3-7.7 11.6-2 3.3-4.7 8.5-6 11.6-1.3 3.1-3.3 8.7-4.4 12.4-1.1 3.8-2.4 10.2-2.8 14.4-0.6 5.3-0.7 9.6-0.1 14 0.4 3.5 1.2 7.9 1.7 9.6 0.4 1.8 2 5.6 3.5 8.4 1.5 2.9 3.9 6.7 5.4 8.4 1.5 1.8 5 4.8 7.8 6.7 2.9 1.9 7.7 4.2 10.8 5.1 4.7 1.4 6.9 1.6 14 1.2 5.4-0.3 10.8-1.1 15.2-2.4 3.7-1.1 9.7-3.2 13.2-4.6 3.5-1.4 11.6-5.1 18-8.3 6.4-3.2 16.1-8.3 21.6-11.3 5.5-3.1 12.7-7.6 16-10 3.3-2.5 8-6.7 10.4-9.4 2.4-2.7 5.6-6.8 7-9.1 1.4-2.4 3.6-6.6 4.8-9.5 2.1-4.8 2.2-5.9 2.2-16.8 0-10.9-0.1-12-2.4-18.4-1.3-3.7-4.2-9.7-6.3-13.2-2.4-3.8-6.9-9.3-11.2-13.6-4.1-4.1-9.7-8.7-12.9-10.6-3.1-1.9-8.3-4.3-11.6-5.5-5-1.8-7.6-2.2-16-2.4-8-0.2-11.2 0-16 1.3z"/>
</svg>