<svg version="1.2" xmlns="http://www.w3.org/2000/svg" viewBox="0 0 191 159" width="191" height="159">
	<title>Новый проект</title>
	<defs>
		<filter x="-50%" y="-50%" width="200%" height="200%" id="f1" ><feDropShadow dx="2.2981333293569337" dy="1.9283628290596184" stdDeviation="3.75" flood-color="#3c5963" flood-opacity=".8"/></filter>
	</defs>
	<style>
		.s0 { filter: url(#f1);fill: #5a4d4c } 
	</style>
	<path id="форма 1" class="s0" d="m90.6 9.4c-2.5 0.4-7.2 1.8-10.5 3.1-3.4 1.3-9.2 4.3-12.9 6.8-3.8 2.4-9.6 6.8-13 9.8-3.3 3-9.4 9.6-13.6 14.7-4.2 5.2-9.8 13-12.4 17.6-2.7 4.5-6.4 12.3-8.4 17.4-1.9 5.1-4.1 12.7-4.8 17-0.9 4.9-1.2 10-0.9 14.3 0.2 3.7 1.2 9 2.1 11.8 1 3.1 3.4 7.3 5.9 10.4 2.4 2.9 6.7 6.7 9.5 8.6 2.9 1.8 8 4.3 11.3 5.4 4 1.3 10.1 2.2 17.8 2.6 7 0.3 15.1 0 20.2-0.7 4.6-0.7 12.9-2.3 18.3-3.7 5.5-1.4 13.1-3.8 17-5.4 3.9-1.6 9.6-4.7 12.7-6.9 3.2-2.2 8.1-7 11.4-11.2 3.4-4.4 6.7-9.7 8.2-13.4 1.3-3.4 3-9 3.6-12.4 0.7-3.4 1.5-8.7 1.8-11.8 0.2-3.1 0.1-9.3-0.4-13.8-0.5-4.6-1.8-11.3-2.9-14.9-1.1-3.7-3.6-9.7-5.5-13.4-1.9-3.6-6-9.7-9.1-13.3-3.6-4.3-8-8.2-12.4-11.1-3.7-2.4-8.8-5-11.2-5.8-2.5-0.7-7.4-1.6-10.9-1.9-3.6-0.3-8.5-0.2-10.9 0.2z"/>
</svg>