<svg version="1.2" xmlns="http://www.w3.org/2000/svg" viewBox="0 0 153 149" width="153" height="149">
	<title>Новый проект</title>
	<defs>
		<filter x="-50%" y="-50%" width="200%" height="200%" id="f1" ><feDropShadow dx="0.15700786872883152" dy="2.9958886042637216" stdDeviation="3.75" flood-color="#3c5963" flood-opacity=".8"/></filter>
	</defs>
	<style>
		.s0 { filter: url(#f1);fill: #8ed3f4 } 
	</style>
	<path id="форма 1" class="s0" d="m49.1 4.8c-3.3 0.9-7.9 2.7-10.2 3.9-2.3 1.1-6 3.8-8.3 5.8-2.2 2.1-6 6.4-8.3 9.7-2.4 3.2-5.6 8.8-7.2 12.3-1.6 3.6-3.6 9.4-4.5 12.9-0.9 3.5-1.6 10.4-1.6 15.3 0 4.9 0.6 11.4 1.4 14.4 0.8 3 2.9 8.1 4.7 11.4 1.8 3.2 6.2 8.9 9.7 12.7 3.6 3.7 10.5 9.4 15.4 12.7 4.9 3.3 13.8 8.4 19.7 11.4 6 3 15.4 6.9 20.8 8.7 5.5 1.9 14.3 3.9 19.8 4.6 7.9 0.9 11.3 0.9 16.8 0 3.9-0.7 9.5-2.7 12.8-4.4 3.2-1.8 7.3-5 9.2-7.2 1.8-2.1 4.3-5.9 5.5-8.4 1.9-3.8 2.2-6 2.2-16.3 0-9.8-0.4-13.1-2.3-18.8-1.3-3.8-4.9-12.3-8.1-18.8-3.2-6.5-9-16.8-13-22.8-4-5.9-9.1-13.1-11.4-15.8-2.3-2.7-6.9-7.2-10.4-10-3.4-2.8-9.8-6.8-14.2-8.9-4.3-2-10.5-4.3-13.8-5-3.3-0.7-8.8-1.2-12.4-1.2-3.5 0-9.1 0.8-12.3 1.8z"/>
</svg>